REM MD5 fe38a7bc5a1beb03a7bc893cb408d062
FILE "Essential PlayStation 8 (Europe).bin" BINARY
  TRACK 01 MODE2/2352
    INDEX 01 00:00:00
  TRACK 02 AUDIO
    INDEX 00 38:47:25
    INDEX 01 38:49:25
  TRACK 03 AUDIO
    INDEX 00 41:46:61
    INDEX 01 41:48:61
  TRACK 04 AUDIO
    INDEX 00 44:48:62
    INDEX 01 44:50:62
  TRACK 05 AUDIO
    INDEX 00 49:21:73
    INDEX 01 49:23:73
REM LEADOUT 52:25:29
